<svg width="18" height="20" viewBox="0 0 18 20" fill="none" xmlns="http://www.w3.org/2000/svg">
<g clip-path="url(#clip0_2_60)">
<path fill-rule="evenodd" clip-rule="evenodd" d="M6.76482 1.14166C5.57442 1.76166 4.60082 2.28646 4.60162 2.30726C4.60242 2.36246 7.45762 3.80886 7.55922 3.80486C7.60562 3.80326 7.94002 3.64966 8.30242 3.46246L8.96162 3.12326L9.68162 3.49366L10.4016 3.86406L11.5808 3.33366C13.3592 2.53606 13.544 2.44806 13.5144 2.41846C13.476 2.37926 12.8384 2.03686 11.1088 1.12646C10.2728 0.686457 9.46162 0.255257 9.30562 0.167257C9.14962 0.0800572 9.00162 0.00965721 8.97522 0.0112572C8.94882 0.0128572 7.95522 0.521657 6.76482 1.14166ZM1.54482 3.84486L0.305616 4.48486V7.29366C0.305616 8.83846 0.321616 10.1025 0.341616 10.1025C0.361616 10.1025 0.971216 9.83846 1.69602 9.51526L3.01442 8.92806V5.96646L3.65842 6.31766C4.15522 6.58806 4.65122 6.85766 5.14882 7.12646L5.99442 7.58486L6.37122 7.41446C6.60722 7.30726 6.84322 7.19926 7.07842 7.09046C7.26002 7.00566 7.70642 6.80486 8.06962 6.64406C8.43282 6.48326 8.76962 6.32086 8.81682 6.28406C8.88002 6.23526 8.10722 5.80806 5.95922 4.70486C4.34002 3.87286 2.96242 3.19526 2.89922 3.19846C2.83602 3.20166 2.22642 3.49286 1.54482 3.84486ZM13.7384 4.02406C12.8944 4.40486 12.204 4.73206 12.2032 4.75046C12.2024 4.76886 12.6624 5.04246 13.2256 5.35766C13.7888 5.67286 14.2488 5.94806 14.2488 5.96886C14.2488 5.98966 13.7504 6.23046 13.1424 6.50486C12.5336 6.77926 10.9952 7.47366 9.72322 8.04886L5.46162 9.97526C4.38962 10.4601 3.42322 10.8969 3.31442 10.9465C1.12482 11.9377 0.523216 12.2129 0.440016 12.2601C0.356816 12.3073 0.338416 12.5841 0.323216 13.9697L0.304016 15.6241L1.41202 16.1889L2.52002 16.7537L4.05602 16.0601C4.90082 15.6785 5.59202 15.3465 5.59202 15.3225C5.59202 15.2985 5.43602 15.1961 5.24482 15.0961C5.05362 14.9961 4.66002 14.7745 4.36962 14.6041C4.07922 14.4337 3.78882 14.2769 3.72562 14.2561C3.66162 14.2353 3.61122 14.1993 3.61202 14.1753C3.61282 14.1521 4.28962 13.8305 5.11522 13.4609C6.71922 12.7441 7.94642 12.1913 10.5808 11.0001C11.7592 10.4673 12.9376 9.93526 14.116 9.40326C15.152 8.93606 16.356 8.38966 16.792 8.18966L17.5848 7.82646L17.6024 6.15446L17.62 4.48246L16.496 3.90486C15.8776 3.58806 15.3496 3.32886 15.3216 3.32966C15.2944 3.33046 14.5816 3.64326 13.7384 4.02406ZM17.284 10.0561C17.1184 10.1369 16.7912 10.2881 16.5568 10.3929C16.3224 10.4969 15.8784 10.6977 15.5696 10.8385L15.008 11.0945L14.9952 12.5625C14.988 13.3697 14.9584 14.0265 14.9288 14.0225C14.8624 14.0129 13.8096 13.4729 12.7512 12.9057C11.9872 12.4969 11.9392 12.4801 11.76 12.5689C11.656 12.6201 11.036 12.8985 10.3824 13.1873C9.72802 13.4761 9.17202 13.7305 9.14562 13.7537C9.11922 13.7769 10.436 14.4905 12.0712 15.3393L15.044 16.8833L16.3144 16.2265C17.0128 15.8649 17.6072 15.5353 17.6344 15.4945C17.696 15.4009 17.6904 9.89686 17.6288 9.90406C17.6048 9.90646 17.4496 9.97526 17.284 10.0561ZM10.2504 16.5169C10.0304 16.6113 9.80962 16.7065 9.58962 16.8017C8.92482 17.0897 9.05522 17.0993 8.26402 16.7049C7.73682 16.4425 7.51042 16.3617 7.41122 16.4009C7.33762 16.4305 6.70082 16.7169 5.99682 17.0369C5.29282 17.3577 4.69282 17.6193 4.66242 17.6193C4.36722 17.6193 4.85842 17.9129 6.75282 18.8681L8.97442 19.9889L9.90962 19.5273C10.424 19.2737 11.4608 18.7649 12.2144 18.3977C12.968 18.0305 13.5752 17.7201 13.5632 17.7081C13.552 17.6961 12.9208 17.3721 12.16 16.9881L10.7776 16.2889L10.2504 16.5169Z" fill="#191D16"/>
</g>
<defs>
<clipPath id="clip0_2_60">
<rect width="17.392" height="20" fill="white" transform="translate(0.304016)"/>
</clipPath>
</defs>
</svg>
