<svg width="16" height="20" viewBox="0 0 16 20" fill="none" xmlns="http://www.w3.org/2000/svg">
<path d="M3.76162 16.8065C3.28642 16.0337 2.82162 15.2937 2.37442 14.5425C2.25442 14.3409 2.18642 14.2769 1.97442 14.4625C1.48802 14.8881 0.973616 15.2817 0.466416 15.6841C0.360816 15.7681 0.272016 15.8825 0.130416 15.9161C0.120816 15.8937 0.104016 15.8713 0.108816 15.8617C1.15602 13.8049 1.56402 11.6073 1.56642 9.31688C1.56722 8.42088 1.55522 7.52248 1.60002 6.62808C1.64722 5.69448 1.95762 4.82968 2.43202 3.99128C2.75522 4.40968 3.05042 4.80728 3.40002 5.15848C3.54642 5.30568 3.40402 5.41848 3.35202 5.53048C2.85842 6.59528 3.16242 7.64328 4.13682 8.21688C4.49602 8.42808 4.88562 8.54168 5.29842 8.55288C5.49522 8.55848 5.57602 8.60168 5.49682 8.80328C5.48642 8.83048 5.48162 8.86328 5.48642 8.89208C5.57842 9.40168 5.30082 9.64968 4.87602 9.85528C4.37762 10.0969 3.91202 10.4033 3.39042 10.7057C3.75282 10.9105 4.07122 11.1321 4.42162 11.2809C5.43922 11.7129 6.00562 12.5353 6.43362 13.4961C6.99282 14.7521 7.36162 16.0713 7.74722 17.3849C7.82482 17.6489 7.90562 17.9113 8.00562 18.2409C8.39361 16.9857 8.70082 15.7857 9.12402 14.6217C9.37201 13.9401 9.64962 13.2713 10.024 12.6473C10.3224 12.1505 10.704 11.7497 11.2296 11.4833C11.688 11.2505 12.1304 10.9841 12.624 10.7081C12.0608 10.3825 11.5416 10.0641 11.0048 9.77848C10.7048 9.61928 10.5144 9.45848 10.5256 9.06568C10.5384 8.61288 10.4928 8.61208 10.9336 8.53848C11.9912 8.36248 12.6848 7.76328 12.8648 6.85288C12.9608 6.36488 12.8464 5.90328 12.6216 5.46888C12.5432 5.31688 12.5448 5.21288 12.676 5.08488C13.0104 4.75848 13.28 4.37368 13.5832 3.99048C14.1368 4.97928 14.4344 6.01528 14.448 7.13048C14.4624 8.31528 14.4128 9.50088 14.4992 10.6857C14.6256 12.4193 15.048 14.0729 15.7904 15.6449C15.8304 15.7297 15.9016 15.8049 15.8912 15.9601C15.3952 15.5617 14.9288 15.1825 14.4568 14.8113C14.2416 14.6425 14.0288 14.3113 13.8088 14.3569C13.6256 14.3945 13.5096 14.7681 13.368 14.9953C13.032 15.5353 12.6936 16.0745 12.368 16.6209C12.2784 16.7713 12.224 16.7905 12.0912 16.6609C11.6776 16.2577 11.244 15.8753 10.8336 15.4697C10.6672 15.3049 10.5904 15.2937 10.4576 15.5129C9.69121 16.7801 8.90802 18.0377 8.13042 19.2985C8.09522 19.3561 8.05842 19.4129 8.00482 19.4985C7.66402 18.9465 7.33682 18.4153 7.00882 17.8841C6.51362 17.0801 6.01522 16.2785 5.52642 15.4705C5.42642 15.3057 5.36162 15.2849 5.21442 15.4297C4.74562 15.8905 4.26162 16.3353 3.76162 16.8065Z" fill="#191D16"/>
<path d="M14.0096 1.69206C14.0144 1.91286 13.9032 2.07606 13.8056 2.24246C12.9992 3.60726 11.848 4.63766 10.58 5.55206C10.1768 5.84246 9.75041 6.09846 9.30961 6.33046C9.16561 6.40646 9.06001 6.41526 8.90721 6.32246C8.31281 5.95926 7.69921 5.95206 7.10561 6.32326C6.95041 6.42006 6.84241 6.40326 6.69921 6.32886C5.05441 5.48086 2.72081 3.56646 1.89841 1.65446C2.02961 1.58006 2.06881 1.70726 2.12961 1.76646C2.38161 2.01126 2.65761 2.21526 2.98161 2.35846C3.22641 2.46726 3.40481 2.44566 3.61281 2.24566C4.75681 1.14406 6.14801 0.572862 7.72241 0.508062C9.48721 0.435262 11.0552 0.987262 12.3512 2.20726C12.6112 2.45206 12.8264 2.46406 13.1104 2.32806C13.4448 2.16886 13.7176 1.92646 14.0096 1.69206Z" fill="#191D16"/>
<path d="M10.5112 10.6912C8.94162 11.6072 8.52562 13.188 8.00962 14.7912C7.48162 13.2056 7.07602 11.5984 5.50082 10.6936C5.76882 10.5376 6.00082 10.3888 6.24482 10.264C6.43922 10.1648 6.51362 10.0232 6.50482 9.80958C6.48242 9.24958 6.51922 8.69678 6.72882 8.16718C6.87602 7.79438 7.11442 7.49518 7.44242 7.27118C7.82882 7.00638 8.22642 7.01918 8.60642 7.29678C9.19922 7.72958 9.42722 8.34878 9.48482 9.04878C9.50562 9.30638 9.50242 9.56638 9.49842 9.82478C9.49522 10.0256 9.57442 10.1608 9.75282 10.256C9.99762 10.3856 10.2352 10.5312 10.5112 10.6912Z" fill="#191D16"/>
<path d="M9.65042 7.27361C10.3848 6.89521 11.0576 6.47761 11.6864 5.99121C12.1128 6.69601 11.6464 7.34161 10.9056 7.48161C10.484 7.56161 10.076 7.50641 9.65042 7.27361Z" fill="#191D16"/>
<path d="M6.34882 7.26885C5.68722 7.62725 4.90962 7.57845 4.46562 7.17765C4.13042 6.87525 4.07682 6.52005 4.30562 5.97925C4.94242 6.46805 5.61442 6.88965 6.34882 7.26885Z" fill="#191D16"/>
</svg>
