<svg width="20" height="20" viewBox="0 0 20 20" fill="none" xmlns="http://www.w3.org/2000/svg">
<g clip-path="url(#clip0_2_56)">
<path d="M4.1573 9.5201C4.1573 9.05024 4.53865 8.66889 5.0017 8.66889C5.0017 8.66889 5.0017 8.66889 5.00851 8.66889L6.41811 8.6757C6.88798 8.6757 7.26932 9.05704 7.26932 9.52691V14.8657C7.42595 14.818 7.63024 14.7704 7.85495 14.7159C8.17501 14.641 8.39973 14.355 8.39973 14.0281V7.40229C8.39973 6.93243 8.78107 6.55109 9.25094 6.55109H10.6673C11.1372 6.55109 11.5186 6.93243 11.5186 7.40229V13.5514C11.5186 13.5514 11.8727 13.4084 12.22 13.2654C12.4787 13.1565 12.649 12.8977 12.6558 12.6117V5.28449C12.6558 4.81462 13.0371 4.43328 13.507 4.43328H14.9098C15.3796 4.43328 15.761 4.81462 15.761 5.28449V11.3179C16.9867 10.4258 18.2329 9.35667 19.2203 8.07645C19.5131 7.69511 19.5948 7.198 19.4382 6.74857C18.0626 2.7581 14.3378 0.0614707 10.1226 0.000183688C4.5795 -0.0747227 -0.00340388 4.45371 -0.00340388 9.99678C-0.0102136 11.7537 0.446034 13.4765 1.32448 15.0019C1.56963 15.4241 2.0395 15.6692 2.52979 15.6284C2.79537 15.6079 3.12904 15.5739 3.524 15.5262C3.87811 15.4854 4.15049 15.1857 4.15049 14.8248L4.1573 9.5201Z" fill="#191D16"/>
<path d="M4.12323 18.0865C8.59037 21.3347 14.8417 20.3473 18.0899 15.8802C19.336 14.171 20.0034 12.1144 20.0034 9.99664C20.0034 9.76511 19.9898 9.54039 19.9761 9.31567C16.3193 14.7634 9.57778 17.3102 4.12323 18.0865Z" fill="#191D16"/>
</g>
<defs>
<clipPath id="clip0_2_56">
<rect width="20.0068" height="20" fill="white" transform="translate(-0.00341797)"/>
</clipPath>
</defs>
</svg>
