<svg width="20" height="20" viewBox="0 0 20 20" fill="none" xmlns="http://www.w3.org/2000/svg">
<g clip-path="url(#clip0_2_82)">
<path d="M17.2716 11.9434C16.9627 12.175 16.5508 12.2008 16.1905 12.0206C15.8044 11.7889 15.5985 11.2741 15.5985 10.5534V8.36551C15.5985 7.31017 15.1866 6.56371 14.4916 6.35779C13.3076 6.02317 12.4324 7.46461 12.0978 8.00515L10.0129 11.3771V7.25869C9.98712 6.30631 9.67824 5.74003 9.08622 5.55985C8.70012 5.45689 8.1081 5.48263 7.56756 6.35779L2.88288 13.8481C2.26512 12.6641 1.95624 11.3256 1.95624 9.98713C1.95624 5.48263 5.55984 1.82754 10.0129 1.82754C14.4659 1.82754 18.0695 5.48263 18.0695 10.0129V10.0386V10.0644C18.0952 10.9138 17.8121 11.6088 17.2716 11.9434ZM19.8456 9.98713V9.93565C19.8198 4.45302 15.4183 0 9.98712 0C4.55598 0 0.154434 4.47876 0.154434 9.98713C0.154434 15.4955 4.58172 19.9743 9.98712 19.9743C12.4839 19.9743 14.8777 19.0219 16.6795 17.2973C17.0399 16.9627 17.0656 16.3707 16.731 16.0103C16.3964 15.6499 15.8559 15.6242 15.4955 15.9588C12.3037 18.9961 7.25868 18.8417 4.2471 15.6499C4.16988 15.5727 4.09266 15.4955 4.04118 15.4183L8.2368 8.67439V11.7889C8.2368 13.2819 8.80308 13.7709 9.29214 13.8996C9.7812 14.0283 10.5277 13.9511 11.2999 12.6641L13.6165 8.90605C13.6937 8.77735 13.7452 8.67439 13.8224 8.59717V10.5534C13.8224 11.9434 14.3887 13.0759 15.3668 13.6165C16.2677 14.1055 17.3745 14.0541 18.2497 13.4878C19.305 12.7928 19.897 11.5315 19.8456 9.98713Z" fill="#191D16"/>
</g>
<defs>
<clipPath id="clip0_2_82">
<rect width="19.6911" height="20" fill="white" transform="translate(0.154434)"/>
</clipPath>
</defs>
</svg>
