<svg width="20" height="18" viewBox="0 0 20 18" fill="none" xmlns="http://www.w3.org/2000/svg">
<path d="M19.164 17.42C16.792 14.244 14.42 11.064 12.036 7.90395C11.812 7.60395 11.832 7.45195 12.08 7.19195C14.144 4.98395 16.196 2.75595 18.248 0.539953C18.356 0.415953 18.524 0.335953 18.548 0.0999533C18.288 0.0999533 18.032 0.131953 17.788 0.0959533C17.228 0.00395326 16.844 0.235953 16.468 0.647953C14.784 2.50395 13.056 4.33195 11.364 6.18395C11.096 6.48395 10.98 6.47595 10.74 6.15195C9.33198 4.23595 7.90398 2.33995 6.47998 0.439953C6.36398 0.283953 6.29598 0.0839533 6.02798 0.0839533C4.23198 0.0959533 2.44398 0.0879533 0.651978 0.0879533C0.671978 0.335953 0.831978 0.459953 0.939978 0.599953C3.16398 3.58795 5.39598 6.57195 7.63998 9.54395C7.86398 9.83595 7.86398 9.99195 7.60798 10.256C5.36798 12.64 3.15998 15.04 0.943978 17.436C0.819978 17.564 0.715978 17.704 0.539978 17.908C0.903978 17.908 1.17998 17.88 1.43998 17.912C1.96398 17.98 2.31198 17.78 2.67198 17.388C4.52798 15.34 6.42398 13.316 8.30398 11.288C8.41198 11.172 8.49598 11.012 8.68798 10.968C8.80398 11.124 8.91598 11.276 9.03198 11.42C10.56 13.452 12.088 15.492 13.6 17.536C13.804 17.812 14.016 17.92 14.36 17.912C15.92 17.892 17.468 17.908 19.024 17.9C19.164 17.9 19.324 17.968 19.46 17.816C19.356 17.692 19.264 17.556 19.164 17.42ZM14.612 16.688C14.464 16.688 14.408 16.572 14.336 16.484C10.588 11.464 6.83598 6.44395 3.00798 1.32795C3.87998 1.32795 4.63998 1.33195 5.40798 1.32395C5.59198 1.32395 5.68398 1.42395 5.77998 1.54795C9.50798 6.53995 13.236 11.532 16.968 16.528C16.988 16.556 16.98 16.592 17 16.688H14.612Z" fill="#191D16"/>
</svg>
