<svg width="18" height="20" viewBox="0 0 18 20" fill="none" xmlns="http://www.w3.org/2000/svg">
<g clip-path="url(#clip0_2_71)">
<path d="M7.12694 4.55101C6.91022 4.52005 6.8999 4.50973 7.0031 4.49941C7.19918 4.46845 7.65326 4.50973 7.97317 4.58197C8.71621 4.75741 9.387 5.21149 10.0991 6.00612L10.2848 6.22284L10.5532 6.18156C11.6987 5.9958 12.8751 6.14028 13.8555 6.59436C14.1238 6.7182 14.547 6.96587 14.5986 7.02779C14.6192 7.04843 14.6502 7.18259 14.6708 7.31675C14.743 7.80179 14.7121 8.16298 14.5573 8.44162C14.4747 8.59642 14.4747 8.6377 14.5263 8.77186C14.5676 8.87506 14.6914 8.9473 14.805 8.9473C15.0526 8.9473 15.3106 8.55514 15.4345 8.00819L15.4861 7.79147L15.579 7.89467C16.1053 8.4829 16.5181 9.29817 16.58 9.87609L16.6006 10.0309L16.5077 9.89673C16.3529 9.65937 16.2085 9.50457 16.0124 9.37042C15.6615 9.13306 15.29 9.06082 14.3096 9.00922C13.4221 8.95762 12.9164 8.88538 12.4211 8.72026C11.5748 8.44162 11.1414 8.08043 10.1404 6.74916C9.6966 6.16092 9.41796 5.841 9.13933 5.57269C8.53045 4.98445 7.92158 4.67485 7.12694 4.55101Z" fill="#191D16"/>
<path d="M14.8153 5.86178C14.8359 5.46962 14.8875 5.21162 15.001 4.97427C15.0423 4.88139 15.0836 4.79883 15.0939 4.79883C15.1042 4.79883 15.0836 4.87107 15.0526 4.95363C14.9701 5.18067 14.9598 5.50058 15.0114 5.86178C15.0836 6.32618 15.1146 6.3881 15.6099 6.89377C15.837 7.13113 16.1053 7.43041 16.2085 7.55425L16.3839 7.78128L16.2085 7.61617C15.9918 7.40977 15.4964 7.01761 15.3829 6.96601C15.3106 6.92473 15.3003 6.92473 15.2487 6.97633C15.2074 7.01761 15.1971 7.07953 15.1971 7.37881C15.1868 7.8432 15.1249 8.13216 14.9701 8.43144C14.8875 8.58624 14.8772 8.55528 14.9494 8.37984C15.001 8.24568 15.0114 8.18376 15.0114 7.74C15.0114 6.84217 14.9082 6.62545 14.2786 6.26426C14.1238 6.17138 13.8555 6.03722 13.7007 5.96498C13.5356 5.89274 13.4118 5.83082 13.4221 5.83082C13.4427 5.81018 14.0516 5.98562 14.289 6.08882C14.6502 6.2333 14.7121 6.24362 14.7534 6.2333C14.7843 6.20234 14.805 6.11978 14.8153 5.86178Z" fill="#191D16"/>
<path d="M7.55005 7.39937C7.11662 6.80081 6.83798 5.87202 6.8999 5.18059L6.92054 4.96387L7.02374 4.98451C7.2095 5.01547 7.52942 5.13931 7.68421 5.23219C8.09701 5.47986 8.28277 5.82042 8.45821 6.66665C8.50981 6.91433 8.58205 7.20329 8.61301 7.29617C8.66461 7.45097 8.86068 7.81216 9.0258 8.0392C9.13932 8.20432 9.06708 8.28688 8.80909 8.26624C8.41693 8.22496 7.89061 7.86376 7.55005 7.39937Z" fill="#191D16"/>
<path d="M14.289 11.8885C12.2456 11.0629 11.5232 10.3508 11.5232 9.1434C11.5232 8.96797 11.5335 8.82349 11.5335 8.82349C11.5439 8.82349 11.6161 8.88541 11.709 8.95765C12.1218 9.28788 12.5862 9.43236 13.8762 9.61812C14.6295 9.73164 15.063 9.8142 15.4551 9.94836C16.7038 10.3612 17.4778 11.2074 17.6636 12.3529C17.7152 12.6831 17.6842 13.3126 17.6017 13.6429C17.5294 13.9009 17.323 14.3756 17.2714 14.3859C17.2611 14.3859 17.2405 14.3343 17.2405 14.2518C17.2198 13.8183 17.0031 13.4055 16.6419 13.0856C16.2085 12.7141 15.6512 12.4355 14.289 11.8885Z" fill="#191D16"/>
<path d="M12.8442 12.2291C12.8235 12.0743 12.7719 11.8782 12.741 11.7957L12.6894 11.6409L12.7823 11.7544C12.9164 11.9092 13.0196 12.0949 13.1125 12.3529C13.1847 12.549 13.1847 12.6109 13.1847 12.9309C13.1847 13.2405 13.1744 13.3127 13.1125 13.4881C13.0093 13.7668 12.8855 13.9628 12.6791 14.1796C12.3075 14.5614 11.8225 14.7678 11.1311 14.8607C11.0072 14.871 10.6564 14.902 10.3468 14.9226C9.57276 14.9639 9.05676 15.0464 8.59237 15.2116C8.53045 15.2322 8.46853 15.2528 8.45821 15.2425C8.43757 15.2219 8.75749 15.0361 9.01549 14.9123C9.37668 14.7368 9.7482 14.644 10.5635 14.4995C10.966 14.4376 11.3787 14.355 11.4819 14.3137C12.5036 13.9938 13.0093 13.1992 12.8442 12.2291Z" fill="#191D16"/>
<path d="M13.7833 13.8905C13.515 13.3023 13.4531 12.745 13.5975 12.2187C13.6182 12.1671 13.6388 12.1155 13.6595 12.1155C13.6801 12.1155 13.742 12.1464 13.8039 12.1877C13.9278 12.2703 14.1858 12.4148 14.8462 12.776C15.6822 13.23 16.1569 13.5809 16.4871 13.9834C16.7761 14.3343 16.9515 14.7367 17.0341 15.2321C17.0857 15.5107 17.0547 16.1815 16.9825 16.4602C16.7554 17.3374 16.2394 18.0391 15.4861 18.4416C15.3726 18.5035 15.2797 18.5448 15.2694 18.5448C15.259 18.5448 15.3003 18.4416 15.3622 18.3177C15.6099 17.7914 15.6409 17.2858 15.4551 16.7182C15.3416 16.3673 15.1042 15.9442 14.6295 15.2321C14.0619 14.4065 13.9278 14.1898 13.7833 13.8905Z" fill="#191D16"/>
<path d="M6.09495 17.0484C6.85863 16.4086 7.79774 15.9545 8.66461 15.8101C9.03613 15.7481 9.65532 15.7688 9.99588 15.8617C10.5428 16.0061 11.0382 16.3157 11.2962 16.6976C11.5439 17.0691 11.6574 17.389 11.7709 18.1011C11.8122 18.3797 11.8638 18.6687 11.8741 18.7306C11.9567 19.1021 12.1218 19.3911 12.3282 19.5459C12.6481 19.7832 13.2054 19.7935 13.7523 19.5871C13.8452 19.5562 13.9278 19.5252 13.9278 19.5355C13.9484 19.5562 13.6698 19.7419 13.484 19.8348C13.226 19.969 13.0196 20.0103 12.741 20.0103C12.2456 20.0103 11.8225 19.7523 11.4819 19.2363C11.4097 19.1331 11.2652 18.8338 11.1414 18.5552C10.7802 17.7192 10.5944 17.4716 10.1713 17.1929C9.7998 16.9556 9.32509 16.904 8.96389 17.0794C8.48917 17.3064 8.36533 17.9153 8.69557 18.2868C8.82973 18.4416 9.07741 18.5655 9.28381 18.5964C9.66564 18.648 9.99588 18.3488 9.99588 17.9669C9.99588 17.7192 9.903 17.5748 9.65532 17.4612C9.32509 17.3168 8.96389 17.4819 8.97421 17.8018C8.97421 17.936 9.03613 18.0185 9.17029 18.0804C9.25285 18.1217 9.25285 18.1217 9.19093 18.1114C8.89165 18.0495 8.81941 17.678 9.05677 17.4406C9.34573 17.1516 9.9546 17.2755 10.161 17.678C10.2436 17.8431 10.2539 18.1733 10.1816 18.3797C10.0062 18.8338 9.51085 19.0711 9.00517 18.937C8.66461 18.8441 8.52013 18.7512 8.10734 18.3281C7.38494 17.5851 7.1063 17.4406 6.07431 17.2858L5.87823 17.2548L6.09495 17.0484Z" fill="#191D16"/>
<path fill-rule="evenodd" clip-rule="evenodd" d="M0.666766 0.443756C3.07131 3.36429 6.77616 7.90506 6.96192 8.15273C7.11671 8.35913 7.05479 8.55521 6.7968 8.69969C6.65232 8.78225 6.35304 8.86481 6.20856 8.86481C6.04344 8.86481 5.84736 8.78225 5.71321 8.64809C5.62033 8.55521 5.21785 7.96698 4.3097 6.55315C3.61826 5.46956 3.03003 4.57172 3.01971 4.5614C2.97843 4.54076 2.97843 4.54076 4.23746 6.79051C5.03209 8.20434 5.29009 8.71001 5.29009 8.77193C5.29009 8.90609 5.24881 8.97833 5.08369 9.16409C4.80505 9.47368 4.68121 9.82456 4.58833 10.5573C4.48514 11.3726 4.2065 11.9505 3.41186 12.9309C2.94747 13.5088 2.87523 13.612 2.76171 13.8493C2.61723 14.1383 2.57595 14.3034 2.55531 14.6749C2.53467 15.0671 2.57595 15.3148 2.68947 15.6863C2.79267 16.0165 2.90619 16.2332 3.18483 16.6563C3.42218 17.0279 3.56666 17.3065 3.56666 17.4097C3.56666 17.4923 3.5873 17.4923 3.95882 17.4097C4.84633 17.2033 5.57905 16.8524 5.98152 16.419C6.2292 16.1507 6.29112 16.0062 6.29112 15.6347C6.29112 15.3973 6.2808 15.3457 6.21888 15.2012C6.11568 14.9742 5.9196 14.7884 5.49649 14.4995C4.93921 14.1176 4.70185 13.8081 4.63993 13.3953C4.58833 13.0444 4.65025 12.807 4.95985 12.1569C5.27977 11.4861 5.36233 11.2074 5.41393 10.5263C5.44489 10.0929 5.49649 9.91744 5.62033 9.78328C5.75449 9.6388 5.868 9.5872 6.18792 9.54592C6.71424 9.47368 7.0548 9.33953 7.32311 9.08153C7.56047 8.86481 7.66367 8.64809 7.67399 8.32817L7.68431 8.09082L7.55015 7.94634C7.06511 7.38906 0.346848 0 0.315889 0C0.305569 0 0.470687 0.196078 0.666766 0.443756ZM3.83498 15.1187C3.9485 14.9226 3.88658 14.6749 3.70082 14.5511C3.52538 14.4376 3.25707 14.4892 3.25707 14.644C3.25707 14.6852 3.2777 14.7265 3.33962 14.7472C3.4325 14.7988 3.44282 14.8504 3.37058 14.9639C3.29834 15.0774 3.29834 15.1806 3.39122 15.2528C3.5357 15.3664 3.73178 15.3044 3.83498 15.1187Z" fill="#191D16"/>
<path fill-rule="evenodd" clip-rule="evenodd" d="M8.01446 9.69051C7.76678 9.76275 7.52942 10.0311 7.45718 10.2994C7.4159 10.4645 7.43654 10.7638 7.50878 10.8567C7.6223 11.0011 7.7255 11.0424 8.01446 11.0424C8.58205 11.0424 9.06709 10.7947 9.11869 10.4955C9.17029 10.2478 8.95357 9.90723 8.65429 9.75243C8.49949 9.66987 8.17958 9.63891 8.01446 9.69051ZM8.67493 10.2065C8.75749 10.0827 8.72653 9.94851 8.57173 9.85563C8.29309 9.68019 7.86998 9.82467 7.86998 10.093C7.86998 10.2271 8.0867 10.3716 8.29309 10.3716C8.42725 10.3716 8.61301 10.2891 8.67493 10.2065Z" fill="#191D16"/>
</g>
<defs>
<clipPath id="clip0_2_71">
<rect width="17.3684" height="20" fill="white" transform="translate(0.315796)"/>
</clipPath>
</defs>
</svg>
