<svg width="166" height="63" viewBox="0 0 166 63" fill="none" xmlns="http://www.w3.org/2000/svg">
<g filter="url(#filter0_d_1_15)">
<path d="M16.0822 4L5 16.5999V56H150.472L161 44.0301V4H16.0822Z" fill="#D9EDDB"/>
<path d="M16.0822 4L5 16.5999V56H150.472L161 44.0301V4H16.0822Z" stroke="#191D16" stroke-width="0.709898"/>
</g>
<mask id="path-2-inside-1_1_15" fill="white">
<path d="M8.3396 22.7661H33.5487V53.3379H8.3396V22.7661Z"/>
</mask>
<path d="M8.3396 53.3379H7.98465V53.6929H8.3396V53.3379ZM33.5487 52.983H8.3396V53.6929H33.5487V52.983ZM8.69455 53.3379V22.7661H7.98465V53.3379H8.69455Z" fill="#191D16" mask="url(#path-2-inside-1_1_15)"/>
<mask id="path-4-inside-2_1_15" fill="white">
<path d="M158.77 37.4114L133.561 37.4114L133.561 6.83955L158.77 6.83955L158.77 37.4114Z"/>
</mask>
<path d="M158.77 6.83955L159.125 6.83955L159.125 6.4846L158.77 6.4846L158.77 6.83955ZM133.561 7.1945L158.77 7.1945L158.77 6.4846L133.561 6.4846L133.561 7.1945ZM158.415 6.83955L158.415 37.4114L159.125 37.4114L159.125 6.83955L158.415 6.83955Z" fill="#191D16" mask="url(#path-4-inside-2_1_15)"/>
<defs>
<filter id="filter0_d_1_15" x="0.385665" y="0.80546" width="165.229" height="61.2287" filterUnits="userSpaceOnUse" color-interpolation-filters="sRGB">
<feFlood flood-opacity="0" result="BackgroundImageFix"/>
<feColorMatrix in="SourceAlpha" type="matrix" values="0 0 0 0 0 0 0 0 0 0 0 0 0 0 0 0 0 0 127 0" result="hardAlpha"/>
<feOffset dy="1.4198"/>
<feGaussianBlur stdDeviation="2.12969"/>
<feComposite in2="hardAlpha" operator="out"/>
<feColorMatrix type="matrix" values="0 0 0 0 0 0 0 0 0 0 0 0 0 0 0 0 0 0 0.15 0"/>
<feBlend mode="normal" in2="BackgroundImageFix" result="effect1_dropShadow_1_15"/>
<feBlend mode="normal" in="SourceGraphic" in2="effect1_dropShadow_1_15" result="shape"/>
</filter>
</defs>
</svg>
